# Blender v2.93.1 OBJ File: ''
# www.blender.org

mtllib cornell_box.mtl
vt 0.0 0.0
o floor
v -0.896394 -0.892363 0.899719
v 0.897318 -0.892363 0.893806
v 0.891337 -0.892363 -0.920672
v -0.891992 -0.892363 -0.914794
vn -0.0000 1.0000 -0.0000
usemtl white
f 2/1/1 4/1/1 1/1/1
f 2/1/1 3/1/1 4/1/1
o light
v -0.218068 0.885784 0.160910
v -0.219191 0.885784 -0.179791
v 0.202630 0.885784 -0.181181
v 0.203753 0.885784 0.159520
vn 0.0000 -1.0000 0.0000
usemtl light
f 6/1/2 8/1/2 5/1/2
f 6/1/2 7/1/2 8/1/2
o ceiling
v -0.906777 0.888380 0.899753
v -0.912758 0.888379 -0.914726
v 0.891337 0.888379 -0.920673
v 0.897318 0.888380 0.893806
vn 0.0000 -1.0000 0.0000
usemtl white
f 10/1/3 12/1/3 9/1/3
f 10/1/3 11/1/3 12/1/3
o back_wall
v -0.891992 -0.892363 -0.914794
v 0.891337 -0.892363 -0.920672
v 0.891337 0.888379 -0.920673
v -0.912758 0.888379 -0.914726
vn 0.0033 0.0000 1.0000
usemtl white
f 13/1/4 15/1/4 16/1/4
f 13/1/4 14/1/4 15/1/4
o green_wall
v 0.891337 -0.892363 -0.920672
v 0.897318 -0.892363 0.893806
v 0.897318 0.888380 0.893806
v 0.891337 0.888379 -0.920673
vn -1.0000 0.0000 0.0033
usemtl green
f 18/1/5 20/1/5 17/1/5
f 18/1/5 19/1/5 20/1/5
o red_wall
v -0.896394 -0.892363 0.899719
v -0.891992 -0.892363 -0.914794
v -0.912758 0.888379 -0.914726
v -0.906777 0.888380 0.899753
vn 1.0000 0.0058 -0.0033
vn 0.9999 0.0117 0.0024
usemtl red
f 21/1/6 23/1/6 24/1/6
f 21/1/7 22/1/7 23/1/7
o short_block
v 0.474802 -0.356972 0.684286
v 0.628840 -0.356972 0.164609
v 0.115663 -0.356972 0.013794
v -0.044886 -0.356972 0.527003
v -0.044886 -0.892363 0.527004
v -0.044886 -0.356972 0.527003
v 0.115663 -0.356972 0.013794
v 0.115663 -0.892363 0.013794
v 0.474802 -0.892363 0.684286
v 0.474802 -0.356972 0.684286
v -0.044886 -0.356972 0.527003
v -0.044886 -0.892363 0.527004
v 0.628840 -0.892363 0.164609
v 0.628840 -0.356972 0.164609
v 0.474802 -0.356972 0.684286
v 0.474802 -0.892363 0.684286
v 0.115663 -0.892363 0.013794
v 0.115663 -0.356972 0.013794
v 0.628840 -0.356972 0.164609
v 0.628840 -0.892363 0.164609
v 0.474802 -0.892363 0.684286
v 0.628840 -0.892363 0.164609
v 0.115663 -0.892363 0.013794
v -0.044886 -0.892363 0.527004
vn -0.0000 1.0000 -0.0000
vn -0.9544 -0.0000 -0.2986
vn -0.2897 0.0000 0.9571
vn 0.9588 0.0000 0.2842
vn 0.2820 -0.0000 -0.9594
usemtl white
f 25/1/8 27/1/8 28/1/8
f 30/1/9 32/1/9 29/1/9
f 34/1/10 36/1/10 33/1/10
f 38/1/11 40/1/11 37/1/11
f 42/1/12 44/1/12 41/1/12
f 45/1/8 47/1/8 48/1/8
f 25/1/8 26/1/8 27/1/8
f 30/1/9 31/1/9 32/1/9
f 34/1/10 35/1/10 36/1/10
f 38/1/11 39/1/11 40/1/11
f 42/1/12 43/1/12 44/1/12
f 45/1/8 46/1/8 47/1/8
o tall_block
v -0.477864 0.178419 0.096871
v 0.034287 0.178419 -0.063813
v -0.126419 0.178419 -0.582453
v -0.638559 0.178419 -0.418525
v -0.477864 -0.892363 0.096871
v -0.477864 0.178419 0.096871
v -0.638559 0.178419 -0.418525
v -0.638559 -0.892363 -0.418524
v -0.638559 -0.892363 -0.418524
v -0.638559 0.178419 -0.418525
v -0.126419 0.178419 -0.582453
v -0.126419 -0.892363 -0.582453
v -0.126419 -0.892363 -0.582453
v -0.126419 0.178419 -0.582453
v 0.034287 0.178419 -0.063813
v 0.034287 -0.892363 -0.063813
v 0.034287 -0.892363 -0.063813
v 0.034287 0.178419 -0.063813
v -0.477864 0.178419 0.096871
v -0.477864 -0.892363 0.096871
v -0.477864 -0.892363 0.096871
v 0.034287 -0.892363 -0.063813
v -0.126419 -0.892363 -0.582453
v -0.638559 -0.892363 -0.418524
vn 0.0000 1.0000 -0.0000
vn -0.9547 0.0000 0.2977
vn -0.3049 -0.0000 -0.9524
vn 0.9552 -0.0000 -0.2960
vn 0.2994 0.0000 0.9541
vn -0.3048 -0.0000 -0.9524
usemtl white
f 50/1/13 52/1/13 49/1/13
f 54/1/14 56/1/14 53/1/14
f 58/1/15 60/1/15 57/1/15
f 62/1/16 64/1/16 61/1/16
f 66/1/17 68/1/17 65/1/17
f 70/1/13 72/1/13 69/1/13
f 50/1/13 51/1/13 52/1/13
f 54/1/14 55/1/14 56/1/14
f 58/1/18 59/1/18 60/1/18
f 62/1/16 63/1/16 64/1/16
f 66/1/17 67/1/17 68/1/17
f 70/1/13 71/1/13 72/1/13
